<svg xmlns="http://www.w3.org/2000/svg" xmlns:xlink="http://www.w3.org/1999/xlink" width="157" zoomAndPan="magnify" viewBox="0 0 117.75 41.25" height="55" preserveAspectRatio="xMidYMid meet" version="1.0"><defs><g/></defs><g fill="#000000" fill-opacity="1"><g transform="translate(11.525506, 27.752779)"><g><path d="M 1.109375 2.109375 C 1.390625 1.085938 1.988281 -0.925781 2.90625 -3.9375 C 3.882812 -7.125 5 -10.804688 6.25 -14.984375 C 6.351562 -15.390625 6.40625 -15.71875 6.40625 -15.96875 C 6.40625 -16.34375 6.285156 -16.53125 6.046875 -16.53125 C 5.546875 -16.53125 5.082031 -16.285156 4.65625 -15.796875 C 4.226562 -15.316406 3.882812 -14.738281 3.625 -14.0625 C 3.375 -13.382812 3.25 -12.769531 3.25 -12.21875 C 3.25 -11.894531 3.285156 -11.613281 3.359375 -11.375 C 2.859375 -11.375 2.488281 -11.5 2.25 -11.75 C 2.019531 -12 1.90625 -12.332031 1.90625 -12.75 C 1.90625 -13.445312 2.175781 -14.160156 2.71875 -14.890625 C 3.257812 -15.628906 3.910156 -16.234375 4.671875 -16.703125 C 5.441406 -17.179688 6.132812 -17.421875 6.75 -17.421875 C 7.34375 -17.421875 7.820312 -17.085938 8.1875 -16.421875 C 8.550781 -15.753906 8.820312 -14.914062 9 -13.90625 C 9.175781 -12.894531 9.363281 -11.550781 9.5625 -9.875 C 9.894531 -6.851562 10.25 -4.144531 10.625 -1.75 C 10.832031 -3.113281 11.207031 -4.84375 11.75 -6.9375 C 12.289062 -9.039062 12.847656 -11.023438 13.421875 -12.890625 C 13.992188 -14.753906 14.359375 -15.867188 14.515625 -16.234375 C 14.628906 -16.492188 14.832031 -16.753906 15.125 -17.015625 C 15.414062 -17.285156 15.722656 -17.421875 16.046875 -17.421875 C 15.460938 -15.890625 14.789062 -13.789062 14.03125 -11.125 C 13.28125 -8.46875 12.628906 -5.890625 12.078125 -3.390625 C 11.523438 -0.898438 11.242188 0.929688 11.234375 2.109375 C 10.710938 2.109375 10.296875 1.957031 9.984375 1.65625 C 9.679688 1.351562 9.46875 0.847656 9.34375 0.140625 C 9.132812 -0.984375 8.789062 -3.128906 8.3125 -6.296875 C 7.832031 -9.472656 7.441406 -12.125 7.140625 -14.25 C 5.640625 -8.84375 4.585938 -5.15625 3.984375 -3.1875 C 3.390625 -1.21875 2.882812 0.15625 2.46875 0.9375 C 2.0625 1.71875 1.609375 2.109375 1.109375 2.109375 Z M 1.109375 2.109375 "/></g></g></g><g fill="#000000" fill-opacity="1"><g transform="translate(27.004952, 27.752779)"><g><path d="M 2.609375 1.0625 C 1.660156 1.0625 0.929688 0.796875 0.421875 0.265625 C -0.0859375 -0.253906 -0.34375 -0.925781 -0.34375 -1.75 C -0.34375 -2.695312 -0.03125 -3.71875 0.59375 -4.8125 C 1.226562 -5.914062 2.023438 -6.84375 2.984375 -7.59375 C 3.941406 -8.34375 4.882812 -8.71875 5.8125 -8.71875 C 6.8125 -8.71875 7.3125 -8.222656 7.3125 -7.234375 C 7.3125 -6.441406 7.007812 -5.703125 6.40625 -5.015625 C 5.8125 -4.335938 5.046875 -3.78125 4.109375 -3.34375 C 3.171875 -2.90625 2.238281 -2.640625 1.3125 -2.546875 C 1.238281 -2.265625 1.203125 -1.972656 1.203125 -1.671875 C 1.203125 -1.085938 1.347656 -0.601562 1.640625 -0.21875 C 1.929688 0.164062 2.425781 0.359375 3.125 0.359375 C 4.101562 0.359375 5.09375 -0.0507812 6.09375 -0.875 C 7.09375 -1.695312 7.910156 -2.710938 8.546875 -3.921875 L 8.828125 -3.703125 C 8.179688 -2.265625 7.285156 -1.109375 6.140625 -0.234375 C 4.992188 0.628906 3.816406 1.0625 2.609375 1.0625 Z M 1.421875 -3 C 2.097656 -3.238281 2.804688 -3.578125 3.546875 -4.015625 C 4.296875 -4.453125 4.929688 -4.960938 5.453125 -5.546875 C 5.984375 -6.140625 6.25 -6.757812 6.25 -7.40625 C 6.25 -7.601562 6.210938 -7.742188 6.140625 -7.828125 C 6.066406 -7.921875 5.929688 -7.96875 5.734375 -7.96875 C 5.234375 -7.96875 4.6875 -7.71875 4.09375 -7.21875 C 3.507812 -6.71875 2.972656 -6.078125 2.484375 -5.296875 C 1.992188 -4.523438 1.640625 -3.757812 1.421875 -3 Z M 1.421875 -3 "/></g></g></g><g fill="#000000" fill-opacity="1"><g transform="translate(35.059099, 27.752779)"><g><path d="M 2.546875 1.234375 C 1.492188 1.234375 0.722656 0.914062 0.234375 0.28125 C -0.242188 -0.34375 -0.484375 -1.082031 -0.484375 -1.9375 C -0.484375 -2.582031 -0.367188 -3.035156 -0.140625 -3.296875 C 0.078125 -3.566406 0.320312 -3.757812 0.59375 -3.875 C 0.863281 -3.988281 1.019531 -4.066406 1.0625 -4.109375 C 2.09375 -5.242188 2.894531 -6.414062 3.46875 -7.625 L 3.46875 -7.921875 C 3.46875 -8.460938 3.554688 -8.867188 3.734375 -9.140625 C 3.921875 -9.421875 4.144531 -9.5625 4.40625 -9.5625 C 4.53125 -9.5625 4.625 -9.53125 4.6875 -9.46875 C 4.757812 -9.414062 4.796875 -9.34375 4.796875 -9.25 C 4.796875 -9.1875 4.769531 -9.050781 4.71875 -8.84375 C 4.664062 -8.644531 4.640625 -8.425781 4.640625 -8.1875 C 4.640625 -7.863281 4.679688 -7.519531 4.765625 -7.15625 C 4.859375 -6.789062 5.003906 -6.316406 5.203125 -5.734375 C 5.429688 -5.046875 5.601562 -4.441406 5.71875 -3.921875 C 5.84375 -3.398438 5.90625 -2.875 5.90625 -2.34375 C 5.90625 -1.925781 5.859375 -1.53125 5.765625 -1.15625 C 6.335938 -1.257812 6.875 -1.523438 7.375 -1.953125 C 7.875 -2.378906 8.351562 -3.023438 8.8125 -3.890625 L 9.03125 -3.65625 C 8.738281 -2.8125 8.289062 -2.144531 7.6875 -1.65625 C 7.09375 -1.175781 6.410156 -0.882812 5.640625 -0.78125 C 5.398438 -0.113281 5.003906 0.382812 4.453125 0.71875 C 3.898438 1.0625 3.265625 1.234375 2.546875 1.234375 Z M 4.234375 -1.1875 C 4.296875 -1.601562 4.328125 -1.984375 4.328125 -2.328125 C 4.328125 -2.804688 4.285156 -3.285156 4.203125 -3.765625 C 4.128906 -4.253906 4.007812 -4.816406 3.84375 -5.453125 C 3.695312 -6.085938 3.609375 -6.503906 3.578125 -6.703125 C 2.753906 -5.347656 1.972656 -4.300781 1.234375 -3.5625 C 1.492188 -2.988281 1.882812 -2.484375 2.40625 -2.046875 C 2.925781 -1.617188 3.535156 -1.332031 4.234375 -1.1875 Z M 2.59375 0.390625 C 3.332031 0.390625 3.835938 -0.00390625 4.109375 -0.796875 C 3.460938 -0.929688 2.875 -1.1875 2.34375 -1.5625 C 1.8125 -1.9375 1.410156 -2.351562 1.140625 -2.8125 C 0.785156 -2.789062 0.609375 -2.503906 0.609375 -1.953125 C 0.609375 -1.347656 0.785156 -0.804688 1.140625 -0.328125 C 1.503906 0.148438 1.988281 0.390625 2.59375 0.390625 Z M 2.59375 0.390625 "/></g></g></g><g fill="#000000" fill-opacity="1"><g transform="translate(43.403486, 27.752779)"><g><path d="M 1.140625 0.921875 C 0.847656 0.921875 0.609375 0.671875 0.421875 0.171875 C 0.234375 -0.328125 0.140625 -0.914062 0.140625 -1.59375 C 0.140625 -3.082031 0.59375 -5.082031 1.5 -7.59375 C 2.414062 -10.113281 3.453125 -12.359375 4.609375 -14.328125 C 5.773438 -16.296875 6.695312 -17.28125 7.375 -17.28125 C 7.632812 -17.28125 7.832031 -17.125 7.96875 -16.8125 C 8.113281 -16.5 8.1875 -16.144531 8.1875 -15.75 C 8.1875 -15 7.914062 -13.992188 7.375 -12.734375 C 6.832031 -11.472656 6.128906 -10.257812 5.265625 -9.09375 C 4.398438 -7.9375 3.515625 -7.082031 2.609375 -6.53125 C 2.316406 -5.851562 2.09375 -5.066406 1.9375 -4.171875 C 1.789062 -3.273438 1.71875 -2.472656 1.71875 -1.765625 C 1.71875 -1.503906 1.734375 -1.226562 1.765625 -0.9375 C 2.410156 -2.8125 3.140625 -4.328125 3.953125 -5.484375 C 4.765625 -6.640625 5.675781 -7.21875 6.6875 -7.21875 C 7.289062 -7.21875 7.742188 -7.003906 8.046875 -6.578125 C 8.359375 -6.148438 8.515625 -5.632812 8.515625 -5.03125 C 8.515625 -4.675781 8.46875 -4.335938 8.375 -4.015625 C 8.289062 -3.691406 8.15625 -3.273438 7.96875 -2.765625 C 7.800781 -2.328125 7.675781 -1.976562 7.59375 -1.71875 C 7.519531 -1.457031 7.484375 -1.207031 7.484375 -0.96875 C 7.484375 -0.664062 7.546875 -0.4375 7.671875 -0.28125 C 7.796875 -0.125 7.972656 -0.046875 8.203125 -0.046875 C 8.753906 -0.046875 9.398438 -0.425781 10.140625 -1.1875 C 10.878906 -1.957031 11.492188 -2.867188 11.984375 -3.921875 L 12.296875 -3.625 C 11.765625 -2.40625 11.082031 -1.398438 10.25 -0.609375 C 9.414062 0.179688 8.546875 0.578125 7.640625 0.578125 C 7.109375 0.578125 6.695312 0.4375 6.40625 0.15625 C 6.125 -0.125 5.984375 -0.488281 5.984375 -0.9375 C 5.984375 -1.289062 6.101562 -1.863281 6.34375 -2.65625 C 6.601562 -3.53125 6.734375 -4.175781 6.734375 -4.59375 C 6.734375 -5 6.644531 -5.296875 6.46875 -5.484375 C 6.300781 -5.671875 6.082031 -5.765625 5.8125 -5.765625 C 5.207031 -5.765625 4.679688 -5.410156 4.234375 -4.703125 C 3.796875 -4.003906 3.320312 -3.019531 2.8125 -1.75 C 2.425781 -0.8125 2.117188 -0.132812 1.890625 0.28125 C 1.660156 0.707031 1.410156 0.921875 1.140625 0.921875 Z M 2.921875 -7.484375 C 3.617188 -8.023438 4.3125 -8.816406 5 -9.859375 C 5.6875 -10.898438 6.25 -11.929688 6.6875 -12.953125 C 7.132812 -13.984375 7.359375 -14.707031 7.359375 -15.125 C 7.359375 -15.257812 7.328125 -15.328125 7.265625 -15.328125 C 7.085938 -15.328125 6.71875 -14.925781 6.15625 -14.125 C 5.601562 -13.320312 5.019531 -12.316406 4.40625 -11.109375 C 3.789062 -9.898438 3.296875 -8.691406 2.921875 -7.484375 Z M 2.921875 -7.484375 "/></g></g></g><g fill="#000000" fill-opacity="1"><g transform="translate(54.916322, 27.752779)"><g><path d="M 6.828125 0.9375 C 5.953125 0.9375 5.515625 0.15625 5.515625 -1.40625 C 5.515625 -1.988281 5.570312 -2.710938 5.6875 -3.578125 C 5.039062 -2.285156 4.398438 -1.242188 3.765625 -0.453125 C 3.128906 0.328125 2.476562 0.71875 1.8125 0.71875 C 1.300781 0.71875 0.867188 0.476562 0.515625 0 C 0.171875 -0.46875 0 -1.039062 0 -1.71875 C 0 -2.3125 0.125 -3.046875 0.375 -3.921875 C 0.625 -4.804688 0.921875 -5.578125 1.265625 -6.234375 C 1.617188 -6.890625 1.90625 -7.21875 2.125 -7.21875 C 2.257812 -7.21875 2.441406 -7.164062 2.671875 -7.0625 C 2.910156 -6.96875 3.03125 -6.859375 3.03125 -6.734375 C 2.6875 -6.210938 2.328125 -5.445312 1.953125 -4.4375 C 1.585938 -3.425781 1.40625 -2.566406 1.40625 -1.859375 C 1.40625 -1.492188 1.460938 -1.128906 1.578125 -0.765625 C 1.691406 -0.410156 1.914062 -0.234375 2.25 -0.234375 C 2.75 -0.234375 3.304688 -0.664062 3.921875 -1.53125 C 4.535156 -2.394531 5.1875 -3.503906 5.875 -4.859375 C 6.007812 -5.535156 6.117188 -6.023438 6.203125 -6.328125 C 6.296875 -6.628906 6.382812 -6.820312 6.46875 -6.90625 C 6.5625 -7 6.6875 -7.046875 6.84375 -7.046875 C 7.0625 -7.046875 7.234375 -7 7.359375 -6.90625 C 7.484375 -6.820312 7.546875 -6.691406 7.546875 -6.515625 C 7.546875 -6.460938 7.53125 -6.375 7.5 -6.25 C 7.320312 -5.644531 7.164062 -4.847656 7.03125 -3.859375 C 6.894531 -2.878906 6.828125 -1.988281 6.828125 -1.1875 C 6.828125 -0.394531 7.003906 0 7.359375 0 C 7.804688 0 8.394531 -0.503906 9.125 -1.515625 C 9.851562 -2.523438 10.515625 -3.675781 11.109375 -4.96875 C 11.109375 -7.007812 11.507812 -8.03125 12.3125 -8.03125 C 12.59375 -8.03125 12.804688 -7.929688 12.953125 -7.734375 C 13.109375 -7.535156 13.1875 -7.328125 13.1875 -7.109375 C 13.1875 -6.953125 13.109375 -6.726562 12.953125 -6.4375 C 12.753906 -6.0625 12.601562 -5.691406 12.5 -5.328125 C 12.394531 -4.972656 12.34375 -4.488281 12.34375 -3.875 C 12.34375 -3.34375 12.414062 -2.898438 12.5625 -2.546875 C 12.71875 -2.203125 13.023438 -2.03125 13.484375 -2.03125 C 13.835938 -2.03125 14.164062 -2.164062 14.46875 -2.4375 C 14.78125 -2.71875 15.085938 -3.179688 15.390625 -3.828125 L 15.703125 -3.578125 C 15.128906 -2.222656 14.332031 -1.546875 13.3125 -1.546875 C 12.8125 -1.546875 12.382812 -1.710938 12.03125 -2.046875 C 11.6875 -2.390625 11.4375 -2.898438 11.28125 -3.578125 C 10.601562 -2.316406 9.863281 -1.25 9.0625 -0.375 C 8.257812 0.5 7.515625 0.9375 6.828125 0.9375 Z M 6.828125 0.9375 "/></g></g></g><g fill="#000000" fill-opacity="1"><g transform="translate(69.839471, 27.752779)"><g><path d="M 1.671875 0.78125 C 1.003906 0.78125 0.519531 0.578125 0.21875 0.171875 C -0.0820312 -0.234375 -0.234375 -0.765625 -0.234375 -1.421875 C -0.234375 -2.085938 -0.0976562 -2.78125 0.171875 -3.5 C 0.441406 -4.226562 0.796875 -4.832031 1.234375 -5.3125 C 1.671875 -5.800781 2.109375 -6.046875 2.546875 -6.046875 C 2.691406 -6.046875 2.859375 -6.007812 3.046875 -5.9375 C 2.859375 -5.769531 2.625 -5.410156 2.34375 -4.859375 C 2.070312 -4.316406 1.832031 -3.734375 1.625 -3.109375 C 1.425781 -2.484375 1.328125 -1.976562 1.328125 -1.59375 C 1.328125 -0.675781 1.617188 -0.21875 2.203125 -0.21875 C 2.535156 -0.21875 2.9375 -0.394531 3.40625 -0.75 C 3.875 -1.101562 4.335938 -1.570312 4.796875 -2.15625 C 4.335938 -2.519531 3.984375 -3 3.734375 -3.59375 C 3.484375 -4.195312 3.359375 -4.820312 3.359375 -5.46875 C 3.359375 -6.3125 3.570312 -7.03125 4 -7.625 C 4.425781 -8.21875 5.003906 -8.515625 5.734375 -8.515625 C 6.347656 -8.515625 6.78125 -8.347656 7.03125 -8.015625 C 7.28125 -7.691406 7.40625 -7.238281 7.40625 -6.65625 C 7.40625 -6.039062 7.253906 -5.347656 6.953125 -4.578125 C 6.660156 -3.816406 6.269531 -3.070312 5.78125 -2.34375 C 6.070312 -2.1875 6.378906 -2.109375 6.703125 -2.109375 C 7.171875 -2.109375 7.65625 -2.25 8.15625 -2.53125 C 8.65625 -2.8125 9.035156 -3.25 9.296875 -3.84375 L 9.578125 -3.609375 C 9.273438 -2.898438 8.84375 -2.375 8.28125 -2.03125 C 7.71875 -1.695312 7.132812 -1.53125 6.53125 -1.53125 C 6.09375 -1.53125 5.707031 -1.609375 5.375 -1.765625 C 4.789062 -1.003906 4.171875 -0.390625 3.515625 0.078125 C 2.867188 0.546875 2.253906 0.78125 1.671875 0.78125 Z M 5.234375 -2.78125 C 5.648438 -3.414062 5.984375 -4.054688 6.234375 -4.703125 C 6.492188 -5.359375 6.625 -5.960938 6.625 -6.515625 C 6.625 -6.960938 6.554688 -7.296875 6.421875 -7.515625 C 6.285156 -7.742188 6.113281 -7.859375 5.90625 -7.859375 C 5.675781 -7.859375 5.441406 -7.75 5.203125 -7.53125 C 4.972656 -7.320312 4.78125 -7.023438 4.625 -6.640625 C 4.476562 -6.265625 4.40625 -5.847656 4.40625 -5.390625 C 4.40625 -4.890625 4.472656 -4.410156 4.609375 -3.953125 C 4.742188 -3.492188 4.953125 -3.101562 5.234375 -2.78125 Z M 5.234375 -2.78125 "/></g></g></g><g fill="#000000" fill-opacity="1"><g transform="translate(78.667596, 27.752779)"><g><path d="M 4.1875 0.625 C 3.632812 0.625 3.203125 0.476562 2.890625 0.1875 C 2.578125 -0.09375 2.421875 -0.46875 2.421875 -0.9375 C 2.421875 -1.488281 2.65625 -2.28125 3.125 -3.3125 C 3.332031 -3.84375 3.488281 -4.265625 3.59375 -4.578125 C 3.695312 -4.898438 3.75 -5.195312 3.75 -5.46875 C 3.75 -5.875 3.65625 -6.191406 3.46875 -6.421875 C 3.28125 -6.660156 3.070312 -6.851562 2.84375 -7 C 2.625 -7.15625 2.472656 -7.257812 2.390625 -7.3125 C 2.035156 -6.40625 1.65625 -5.519531 1.25 -4.65625 C 0.851562 -3.789062 0.515625 -3.125 0.234375 -2.65625 L 0.03125 -3.078125 C 0.800781 -4.578125 1.453125 -6.109375 1.984375 -7.671875 C 1.828125 -7.835938 1.75 -8.03125 1.75 -8.25 C 1.75 -8.539062 1.804688 -8.816406 1.921875 -9.078125 C 2.046875 -9.335938 2.191406 -9.539062 2.359375 -9.6875 C 2.523438 -9.832031 2.660156 -9.90625 2.765625 -9.90625 C 2.984375 -9.90625 3.09375 -9.707031 3.09375 -9.3125 C 3.09375 -9.25 3.050781 -9.101562 2.96875 -8.875 C 2.894531 -8.65625 2.847656 -8.503906 2.828125 -8.421875 C 2.828125 -8.265625 2.894531 -8.113281 3.03125 -7.96875 C 3.175781 -7.832031 3.398438 -7.660156 3.703125 -7.453125 C 4.203125 -7.097656 4.59375 -6.742188 4.875 -6.390625 C 5.15625 -6.046875 5.296875 -5.601562 5.296875 -5.0625 C 5.296875 -4.707031 5.238281 -4.351562 5.125 -4 C 5.019531 -3.65625 4.851562 -3.203125 4.625 -2.640625 C 4.269531 -1.859375 4.09375 -1.300781 4.09375 -0.96875 C 4.09375 -0.476562 4.332031 -0.234375 4.8125 -0.234375 C 5.300781 -0.234375 5.820312 -0.425781 6.375 -0.8125 C 6.9375 -1.207031 7.445312 -1.691406 7.90625 -2.265625 C 8.375 -2.835938 8.71875 -3.363281 8.9375 -3.84375 L 9.25 -3.609375 C 8.75 -2.492188 8.019531 -1.507812 7.0625 -0.65625 C 6.113281 0.195312 5.15625 0.625 4.1875 0.625 Z M 4.1875 0.625 "/></g></g></g><g fill="#000000" fill-opacity="1"><g transform="translate(87.084543, 27.752779)"><g><path d="M 7.1875 0.921875 C 6.625 0.921875 6.15625 0.675781 5.78125 0.1875 C 5.414062 -0.289062 5.144531 -0.867188 4.96875 -1.546875 C 4.800781 -2.222656 4.71875 -2.851562 4.71875 -3.4375 C 5.019531 -3.4375 5.414062 -3.523438 5.90625 -3.703125 C 6.40625 -3.878906 6.847656 -4.140625 7.234375 -4.484375 C 7.617188 -4.835938 7.8125 -5.265625 7.8125 -5.765625 C 7.8125 -6.085938 7.691406 -6.347656 7.453125 -6.546875 C 7.210938 -6.742188 6.929688 -6.84375 6.609375 -6.84375 C 5.578125 -6.84375 4.691406 -6.179688 3.953125 -4.859375 C 3.222656 -3.535156 2.582031 -2.046875 2.03125 -0.390625 L 1.765625 0.3125 C 1.679688 0.457031 1.5625 0.566406 1.40625 0.640625 C 1.257812 0.710938 1.101562 0.75 0.9375 0.75 C 0.570312 0.75 0.335938 0.554688 0.234375 0.171875 C 0.140625 -0.210938 0.09375 -0.78125 0.09375 -1.53125 C 0.09375 -3.101562 0.570312 -5.140625 1.53125 -7.640625 C 2.5 -10.148438 3.582031 -12.382812 4.78125 -14.34375 C 5.976562 -16.300781 6.863281 -17.28125 7.4375 -17.28125 C 7.644531 -17.28125 7.820312 -17.125 7.96875 -16.8125 C 8.113281 -16.507812 8.1875 -16.140625 8.1875 -15.703125 C 8.1875 -14.960938 7.96875 -14.113281 7.53125 -13.15625 C 7.101562 -12.207031 6.507812 -11.289062 5.75 -10.40625 C 5 -9.519531 4.164062 -8.800781 3.25 -8.25 C 2.726562 -6.988281 2.328125 -5.738281 2.046875 -4.5 C 1.773438 -3.257812 1.640625 -2.203125 1.640625 -1.328125 C 2.347656 -3.117188 3.160156 -4.695312 4.078125 -6.0625 C 5.003906 -7.425781 6 -8.109375 7.0625 -8.109375 C 7.664062 -8.109375 8.175781 -7.894531 8.59375 -7.46875 C 9.007812 -7.050781 9.21875 -6.546875 9.21875 -5.953125 C 9.21875 -5.328125 9.007812 -4.800781 8.59375 -4.375 C 8.1875 -3.945312 7.710938 -3.628906 7.171875 -3.421875 C 6.628906 -3.222656 6.164062 -3.125 5.78125 -3.125 C 5.863281 -2.53125 6.0625 -1.859375 6.375 -1.109375 C 6.6875 -0.367188 7.117188 0 7.671875 0 C 8.878906 0 10.070312 -1.3125 11.25 -3.9375 L 11.5 -3.703125 C 11.269531 -2.910156 10.921875 -2.160156 10.453125 -1.453125 C 9.984375 -0.742188 9.457031 -0.171875 8.875 0.265625 C 8.300781 0.703125 7.738281 0.921875 7.1875 0.921875 Z M 3.65625 -9.21875 C 4.363281 -9.78125 5 -10.441406 5.5625 -11.203125 C 6.125 -11.960938 6.5625 -12.695312 6.875 -13.40625 C 7.195312 -14.113281 7.359375 -14.679688 7.359375 -15.109375 C 7.359375 -15.253906 7.332031 -15.328125 7.28125 -15.328125 C 7.039062 -15.328125 6.550781 -14.707031 5.8125 -13.46875 C 5.070312 -12.238281 4.351562 -10.820312 3.65625 -9.21875 Z M 3.65625 -9.21875 "/></g></g></g><g fill="#000000" fill-opacity="1"><g transform="translate(97.871778, 27.752779)"><g><path d="M 2.546875 1.234375 C 1.492188 1.234375 0.722656 0.914062 0.234375 0.28125 C -0.242188 -0.34375 -0.484375 -1.082031 -0.484375 -1.9375 C -0.484375 -2.582031 -0.367188 -3.035156 -0.140625 -3.296875 C 0.078125 -3.566406 0.320312 -3.757812 0.59375 -3.875 C 0.863281 -3.988281 1.019531 -4.066406 1.0625 -4.109375 C 2.09375 -5.242188 2.894531 -6.414062 3.46875 -7.625 L 3.46875 -7.921875 C 3.46875 -8.460938 3.554688 -8.867188 3.734375 -9.140625 C 3.921875 -9.421875 4.144531 -9.5625 4.40625 -9.5625 C 4.53125 -9.5625 4.625 -9.53125 4.6875 -9.46875 C 4.757812 -9.414062 4.796875 -9.34375 4.796875 -9.25 C 4.796875 -9.1875 4.769531 -9.050781 4.71875 -8.84375 C 4.664062 -8.644531 4.640625 -8.425781 4.640625 -8.1875 C 4.640625 -7.863281 4.679688 -7.519531 4.765625 -7.15625 C 4.859375 -6.789062 5.003906 -6.316406 5.203125 -5.734375 C 5.429688 -5.046875 5.601562 -4.441406 5.71875 -3.921875 C 5.84375 -3.398438 5.90625 -2.875 5.90625 -2.34375 C 5.90625 -1.925781 5.859375 -1.53125 5.765625 -1.15625 C 6.335938 -1.257812 6.875 -1.523438 7.375 -1.953125 C 7.875 -2.378906 8.351562 -3.023438 8.8125 -3.890625 L 9.03125 -3.65625 C 8.738281 -2.8125 8.289062 -2.144531 7.6875 -1.65625 C 7.09375 -1.175781 6.410156 -0.882812 5.640625 -0.78125 C 5.398438 -0.113281 5.003906 0.382812 4.453125 0.71875 C 3.898438 1.0625 3.265625 1.234375 2.546875 1.234375 Z M 4.234375 -1.1875 C 4.296875 -1.601562 4.328125 -1.984375 4.328125 -2.328125 C 4.328125 -2.804688 4.285156 -3.285156 4.203125 -3.765625 C 4.128906 -4.253906 4.007812 -4.816406 3.84375 -5.453125 C 3.695312 -6.085938 3.609375 -6.503906 3.578125 -6.703125 C 2.753906 -5.347656 1.972656 -4.300781 1.234375 -3.5625 C 1.492188 -2.988281 1.882812 -2.484375 2.40625 -2.046875 C 2.925781 -1.617188 3.535156 -1.332031 4.234375 -1.1875 Z M 2.59375 0.390625 C 3.332031 0.390625 3.835938 -0.00390625 4.109375 -0.796875 C 3.460938 -0.929688 2.875 -1.1875 2.34375 -1.5625 C 1.8125 -1.9375 1.410156 -2.351562 1.140625 -2.8125 C 0.785156 -2.789062 0.609375 -2.503906 0.609375 -1.953125 C 0.609375 -1.347656 0.785156 -0.804688 1.140625 -0.328125 C 1.503906 0.148438 1.988281 0.390625 2.59375 0.390625 Z M 2.59375 0.390625 "/></g></g></g></svg>