<svg xmlns="http://www.w3.org/2000/svg" xmlns:xlink="http://www.w3.org/1999/xlink" width="1080" zoomAndPan="magnify" viewBox="0 0 810 809.999993" height="1080" preserveAspectRatio="xMidYMid meet" version="1.0"><defs><g/></defs><g fill="#8b561f" fill-opacity="1"><g transform="translate(119.214497, 451.499997)"><g><path d="M 6.71875 12.703125 C 8.375 6.566406 11.972656 -5.597656 17.515625 -23.796875 C 23.453125 -42.972656 30.171875 -65.164062 37.671875 -90.375 C 38.347656 -92.8125 38.6875 -94.804688 38.6875 -96.359375 C 38.6875 -98.597656 37.957031 -99.71875 36.5 -99.71875 C 33.476562 -99.71875 30.675781 -98.253906 28.09375 -95.328125 C 25.519531 -92.410156 23.453125 -88.90625 21.890625 -84.8125 C 20.335938 -80.726562 19.5625 -77.035156 19.5625 -73.734375 C 19.5625 -71.785156 19.804688 -70.082031 20.296875 -68.625 C 17.273438 -68.625 15.054688 -69.375 13.640625 -70.875 C 12.234375 -72.382812 11.53125 -74.40625 11.53125 -76.9375 C 11.53125 -81.125 13.160156 -85.429688 16.421875 -89.859375 C 19.679688 -94.285156 23.625 -97.9375 28.25 -100.8125 C 32.875 -103.6875 37.035156 -105.125 40.734375 -105.125 C 44.335938 -105.125 47.234375 -103.101562 49.421875 -99.0625 C 51.609375 -95.019531 53.238281 -89.957031 54.3125 -83.875 C 55.382812 -77.789062 56.503906 -69.6875 57.671875 -59.5625 C 59.710938 -41.363281 61.851562 -25.015625 64.09375 -10.515625 C 65.351562 -18.785156 67.613281 -29.242188 70.875 -41.890625 C 74.144531 -54.546875 77.503906 -66.492188 80.953125 -77.734375 C 84.410156 -88.984375 86.625 -95.726562 87.59375 -97.96875 C 88.28125 -99.519531 89.5 -101.097656 91.25 -102.703125 C 93 -104.316406 94.847656 -105.125 96.796875 -105.125 C 93.296875 -95.875 89.253906 -83.21875 84.671875 -67.15625 C 80.097656 -51.09375 76.15625 -35.539062 72.84375 -20.5 C 69.539062 -5.46875 67.84375 5.597656 67.75 12.703125 C 64.632812 12.703125 62.148438 11.800781 60.296875 10 C 58.453125 8.195312 57.140625 5.15625 56.359375 0.875 C 55.085938 -5.9375 53.015625 -18.90625 50.140625 -38.03125 C 47.273438 -57.15625 44.914062 -73.144531 43.0625 -86 C 34.007812 -53.382812 27.679688 -31.140625 24.078125 -19.265625 C 20.484375 -7.390625 17.441406 0.90625 14.953125 5.625 C 12.472656 10.34375 9.726562 12.703125 6.71875 12.703125 Z M 6.71875 12.703125 "/></g></g></g><g fill="#8b561f" fill-opacity="1"><g transform="translate(212.649437, 451.499997)"><g><path d="M 15.765625 6.421875 C 10.023438 6.421875 5.617188 4.835938 2.546875 1.671875 C -0.515625 -1.484375 -2.046875 -5.546875 -2.046875 -10.515625 C -2.046875 -16.253906 -0.148438 -22.429688 3.640625 -29.046875 C 7.441406 -35.671875 12.238281 -41.242188 18.03125 -45.765625 C 23.820312 -50.296875 29.492188 -52.5625 35.046875 -52.5625 C 41.078125 -52.5625 44.09375 -49.59375 44.09375 -43.65625 C 44.09375 -38.882812 42.289062 -34.429688 38.6875 -30.296875 C 35.082031 -26.160156 30.457031 -22.773438 24.8125 -20.140625 C 19.175781 -17.515625 13.535156 -15.910156 7.890625 -15.328125 C 7.492188 -13.671875 7.296875 -11.921875 7.296875 -10.078125 C 7.296875 -6.566406 8.171875 -3.644531 9.921875 -1.3125 C 11.679688 1.019531 14.648438 2.1875 18.828125 2.1875 C 24.765625 2.1875 30.75 -0.289062 36.78125 -5.25 C 42.820312 -10.21875 47.738281 -16.351562 51.53125 -23.65625 L 53.296875 -22.34375 C 49.398438 -13.675781 43.992188 -6.710938 37.078125 -1.453125 C 30.171875 3.796875 23.066406 6.421875 15.765625 6.421875 Z M 8.609375 -18.109375 C 12.703125 -19.566406 16.984375 -21.609375 21.453125 -24.234375 C 25.929688 -26.859375 29.753906 -29.945312 32.921875 -33.5 C 36.085938 -37.0625 37.671875 -40.785156 37.671875 -44.671875 C 37.671875 -45.835938 37.453125 -46.6875 37.015625 -47.21875 C 36.578125 -47.757812 35.773438 -48.03125 34.609375 -48.03125 C 31.585938 -48.03125 28.300781 -46.519531 24.75 -43.5 C 21.195312 -40.488281 17.9375 -36.644531 14.96875 -31.96875 C 12 -27.300781 9.878906 -22.679688 8.609375 -18.109375 Z M 8.609375 -18.109375 "/></g></g></g><g fill="#8b561f" fill-opacity="1"><g transform="translate(261.264807, 451.499997)"><g><path d="M 15.328125 7.453125 C 9.003906 7.453125 4.378906 5.550781 1.453125 1.75 C -1.460938 -2.039062 -2.921875 -6.519531 -2.921875 -11.6875 C -2.921875 -15.570312 -2.238281 -18.316406 -0.875 -19.921875 C 0.488281 -21.535156 1.972656 -22.679688 3.578125 -23.359375 C 5.179688 -24.035156 6.128906 -24.519531 6.421875 -24.8125 C 12.648438 -31.632812 17.46875 -38.691406 20.875 -45.984375 L 20.875 -47.734375 C 20.875 -51.046875 21.429688 -53.53125 22.546875 -55.1875 C 23.671875 -56.84375 25.015625 -57.671875 26.578125 -57.671875 C 27.347656 -57.671875 27.925781 -57.5 28.3125 -57.15625 C 28.707031 -56.8125 28.90625 -56.347656 28.90625 -55.765625 C 28.90625 -55.378906 28.757812 -54.578125 28.46875 -53.359375 C 28.175781 -52.140625 28.03125 -50.800781 28.03125 -49.34375 C 28.03125 -47.394531 28.296875 -45.328125 28.828125 -43.140625 C 29.367188 -40.953125 30.222656 -38.109375 31.390625 -34.609375 C 32.753906 -30.421875 33.800781 -26.769531 34.53125 -23.65625 C 35.257812 -20.539062 35.625 -17.375 35.625 -14.15625 C 35.625 -11.625 35.332031 -9.242188 34.75 -7.015625 C 38.25 -7.597656 41.507812 -9.175781 44.53125 -11.75 C 47.550781 -14.332031 50.421875 -18.25 53.140625 -23.5 L 54.453125 -22.046875 C 52.703125 -16.984375 50.023438 -12.988281 46.421875 -10.0625 C 42.828125 -7.144531 38.691406 -5.347656 34.015625 -4.671875 C 32.554688 -0.679688 30.171875 2.332031 26.859375 4.375 C 23.554688 6.425781 19.710938 7.453125 15.328125 7.453125 Z M 25.546875 -7.15625 C 25.941406 -9.6875 26.140625 -11.972656 26.140625 -14.015625 C 26.140625 -16.929688 25.894531 -19.847656 25.40625 -22.765625 C 24.914062 -25.691406 24.1875 -29.050781 23.21875 -32.84375 C 22.34375 -36.738281 21.804688 -39.269531 21.609375 -40.4375 C 16.640625 -32.257812 11.921875 -25.9375 7.453125 -21.46875 C 9.003906 -18.0625 11.359375 -15.039062 14.515625 -12.40625 C 17.679688 -9.78125 21.359375 -8.03125 25.546875 -7.15625 Z M 15.625 2.34375 C 20.101562 2.34375 23.164062 -0.0390625 24.8125 -4.8125 C 20.925781 -5.59375 17.375 -7.125 14.15625 -9.40625 C 10.945312 -11.695312 8.515625 -14.207031 6.859375 -16.9375 C 4.722656 -16.84375 3.65625 -15.140625 3.65625 -11.828125 C 3.65625 -8.128906 4.75 -4.84375 6.9375 -1.96875 C 9.125 0.90625 12.019531 2.34375 15.625 2.34375 Z M 15.625 2.34375 "/></g></g></g><g fill="#8b561f" fill-opacity="1"><g transform="translate(311.632083, 451.499997)"><g><path d="M 6.859375 5.546875 C 5.109375 5.546875 3.671875 4.035156 2.546875 1.015625 C 1.429688 -1.992188 0.875 -5.546875 0.875 -9.640625 C 0.875 -18.585938 3.625 -30.65625 9.125 -45.84375 C 14.625 -61.03125 20.875 -74.5625 27.875 -86.4375 C 34.882812 -98.3125 40.4375 -104.25 44.53125 -104.25 C 46.082031 -104.25 47.269531 -103.296875 48.09375 -101.390625 C 48.925781 -99.492188 49.34375 -97.378906 49.34375 -95.046875 C 49.34375 -90.472656 47.710938 -84.390625 44.453125 -76.796875 C 41.191406 -69.203125 36.957031 -61.898438 31.75 -54.890625 C 26.539062 -47.890625 21.210938 -42.734375 15.765625 -39.421875 C 14.015625 -35.328125 12.675781 -30.578125 11.75 -25.171875 C 10.820312 -19.773438 10.359375 -14.9375 10.359375 -10.65625 C 10.359375 -9.101562 10.457031 -7.445312 10.65625 -5.6875 C 14.550781 -16.976562 18.957031 -26.101562 23.875 -33.0625 C 28.789062 -40.03125 34.265625 -43.515625 40.296875 -43.515625 C 43.992188 -43.515625 46.765625 -42.222656 48.609375 -39.640625 C 50.460938 -37.054688 51.390625 -33.96875 51.390625 -30.375 C 51.390625 -28.226562 51.117188 -26.179688 50.578125 -24.234375 C 50.046875 -22.285156 49.195312 -19.753906 48.03125 -16.640625 C 47.0625 -14.015625 46.332031 -11.921875 45.84375 -10.359375 C 45.351562 -8.804688 45.109375 -7.300781 45.109375 -5.84375 C 45.109375 -3.988281 45.5 -2.597656 46.28125 -1.671875 C 47.0625 -0.753906 48.132812 -0.296875 49.5 -0.296875 C 52.800781 -0.296875 56.691406 -2.601562 61.171875 -7.21875 C 65.648438 -11.84375 69.347656 -17.320312 72.265625 -23.65625 L 74.171875 -21.90625 C 70.953125 -14.5 66.835938 -8.410156 61.828125 -3.640625 C 56.816406 1.117188 51.585938 3.5 46.140625 3.5 C 42.921875 3.5 40.4375 2.644531 38.6875 0.9375 C 36.9375 -0.757812 36.0625 -2.96875 36.0625 -5.6875 C 36.0625 -7.832031 36.789062 -11.289062 38.25 -16.0625 C 39.8125 -21.3125 40.59375 -25.203125 40.59375 -27.734375 C 40.59375 -30.171875 40.078125 -31.945312 39.046875 -33.0625 C 38.023438 -34.1875 36.691406 -34.75 35.046875 -34.75 C 31.441406 -34.75 28.300781 -32.628906 25.625 -28.390625 C 22.945312 -24.160156 20.050781 -18.203125 16.9375 -10.515625 C 14.601562 -4.867188 12.753906 -0.78125 11.390625 1.75 C 10.023438 4.28125 8.515625 5.546875 6.859375 5.546875 Z M 17.671875 -45.109375 C 21.847656 -48.421875 26.003906 -53.210938 30.140625 -59.484375 C 34.285156 -65.765625 37.695312 -71.992188 40.375 -78.171875 C 43.050781 -84.359375 44.390625 -88.71875 44.390625 -91.25 C 44.390625 -92.03125 44.191406 -92.421875 43.796875 -92.421875 C 42.722656 -92.421875 40.507812 -90.007812 37.15625 -85.1875 C 33.800781 -80.375 30.273438 -74.316406 26.578125 -67.015625 C 22.878906 -59.710938 19.910156 -52.410156 17.671875 -45.109375 Z M 17.671875 -45.109375 "/></g></g></g><g fill="#8b561f" fill-opacity="1"><g transform="translate(381.124336, 451.499997)"><g><path d="M 41.171875 5.6875 C 35.910156 5.6875 33.28125 0.96875 33.28125 -8.46875 C 33.28125 -11.96875 33.625 -16.347656 34.3125 -21.609375 C 30.414062 -13.816406 26.546875 -7.535156 22.703125 -2.765625 C 18.859375 1.992188 14.941406 4.375 10.953125 4.375 C 7.835938 4.375 5.234375 2.9375 3.140625 0.0625 C 1.046875 -2.800781 0 -6.273438 0 -10.359375 C 0 -13.960938 0.753906 -18.414062 2.265625 -23.71875 C 3.773438 -29.03125 5.570312 -33.65625 7.65625 -37.59375 C 9.75 -41.539062 11.476562 -43.515625 12.84375 -43.515625 C 13.625 -43.515625 14.71875 -43.21875 16.125 -42.625 C 17.539062 -42.039062 18.25 -41.363281 18.25 -40.59375 C 16.207031 -37.476562 14.066406 -32.878906 11.828125 -26.796875 C 9.585938 -20.710938 8.46875 -15.523438 8.46875 -11.234375 C 8.46875 -9.003906 8.804688 -6.816406 9.484375 -4.671875 C 10.171875 -2.523438 11.535156 -1.453125 13.578125 -1.453125 C 16.597656 -1.453125 19.957031 -4.054688 23.65625 -9.265625 C 27.351562 -14.472656 31.296875 -21.164062 35.484375 -29.34375 C 36.253906 -33.4375 36.90625 -36.378906 37.4375 -38.171875 C 37.976562 -39.972656 38.515625 -41.140625 39.046875 -41.671875 C 39.585938 -42.210938 40.34375 -42.484375 41.3125 -42.484375 C 42.582031 -42.484375 43.601562 -42.210938 44.375 -41.671875 C 45.15625 -41.140625 45.546875 -40.34375 45.546875 -39.28125 C 45.546875 -38.988281 45.453125 -38.453125 45.265625 -37.671875 C 44.191406 -34.066406 43.238281 -29.296875 42.40625 -23.359375 C 41.582031 -17.421875 41.171875 -12.019531 41.171875 -7.15625 C 41.171875 -2.382812 42.242188 0 44.390625 0 C 47.109375 0 50.65625 -3.039062 55.03125 -9.125 C 59.414062 -15.207031 63.410156 -22.144531 67.015625 -29.9375 C 67.015625 -42.289062 69.445312 -48.46875 74.3125 -48.46875 C 75.96875 -48.46875 77.253906 -47.859375 78.171875 -46.640625 C 79.097656 -45.429688 79.5625 -44.191406 79.5625 -42.921875 C 79.5625 -41.953125 79.078125 -40.59375 78.109375 -38.84375 C 76.941406 -36.601562 76.039062 -34.382812 75.40625 -32.1875 C 74.769531 -30 74.453125 -27.054688 74.453125 -23.359375 C 74.453125 -20.148438 74.914062 -17.5 75.84375 -15.40625 C 76.769531 -13.3125 78.597656 -12.265625 81.328125 -12.265625 C 83.460938 -12.265625 85.453125 -13.09375 87.296875 -14.75 C 89.148438 -16.40625 91.003906 -19.175781 92.859375 -23.0625 L 94.75 -21.609375 C 91.25 -13.429688 86.429688 -9.34375 80.296875 -9.34375 C 77.285156 -9.34375 74.734375 -10.363281 72.640625 -12.40625 C 70.546875 -14.445312 69.007812 -17.515625 68.03125 -21.609375 C 63.945312 -14.015625 59.492188 -7.566406 54.671875 -2.265625 C 49.859375 3.035156 45.359375 5.6875 41.171875 5.6875 Z M 41.171875 5.6875 "/></g></g></g><g fill="#8b561f" fill-opacity="1"><g transform="translate(471.201465, 451.499997)"><g><path d="M 10.078125 4.671875 C 6.085938 4.671875 3.164062 3.453125 1.3125 1.015625 C -0.53125 -1.410156 -1.453125 -4.617188 -1.453125 -8.609375 C -1.453125 -12.597656 -0.628906 -16.78125 1.015625 -21.15625 C 2.671875 -25.539062 4.8125 -29.191406 7.4375 -32.109375 C 10.070312 -35.035156 12.703125 -36.5 15.328125 -36.5 C 16.203125 -36.5 17.222656 -36.253906 18.390625 -35.765625 C 17.222656 -34.796875 15.8125 -32.65625 14.15625 -29.34375 C 12.507812 -26.03125 11.078125 -22.5 9.859375 -18.75 C 8.640625 -15.007812 8.03125 -11.972656 8.03125 -9.640625 C 8.03125 -4.085938 9.78125 -1.3125 13.28125 -1.3125 C 15.332031 -1.3125 17.765625 -2.378906 20.578125 -4.515625 C 23.398438 -6.660156 26.175781 -9.488281 28.90625 -13 C 26.175781 -15.238281 24.054688 -18.15625 22.546875 -21.75 C 21.046875 -25.351562 20.296875 -29.101562 20.296875 -33 C 20.296875 -38.0625 21.582031 -42.390625 24.15625 -45.984375 C 26.738281 -49.585938 30.222656 -51.390625 34.609375 -51.390625 C 38.304688 -51.390625 40.90625 -50.390625 42.40625 -48.390625 C 43.914062 -46.398438 44.671875 -43.65625 44.671875 -40.15625 C 44.671875 -36.457031 43.769531 -32.296875 41.96875 -27.671875 C 40.175781 -23.046875 37.816406 -18.539062 34.890625 -14.15625 C 36.640625 -13.1875 38.488281 -12.703125 40.4375 -12.703125 C 43.257812 -12.703125 46.179688 -13.550781 49.203125 -15.25 C 52.222656 -16.957031 54.507812 -19.613281 56.0625 -23.21875 L 57.8125 -21.75 C 55.96875 -17.46875 53.34375 -14.304688 49.9375 -12.265625 C 46.53125 -10.222656 43.023438 -9.203125 39.421875 -9.203125 C 36.796875 -9.203125 34.457031 -9.6875 32.40625 -10.65625 C 28.90625 -6.082031 25.179688 -2.382812 21.234375 0.4375 C 17.296875 3.257812 13.578125 4.671875 10.078125 4.671875 Z M 31.53125 -16.796875 C 34.0625 -20.585938 36.101562 -24.453125 37.65625 -28.390625 C 39.21875 -32.335938 40 -35.96875 40 -39.28125 C 40 -42 39.582031 -44.039062 38.75 -45.40625 C 37.925781 -46.769531 36.882812 -47.453125 35.625 -47.453125 C 34.257812 -47.453125 32.867188 -46.796875 31.453125 -45.484375 C 30.046875 -44.171875 28.878906 -42.367188 27.953125 -40.078125 C 27.035156 -37.785156 26.578125 -35.28125 26.578125 -32.5625 C 26.578125 -29.539062 26.988281 -26.640625 27.8125 -23.859375 C 28.632812 -21.085938 29.875 -18.734375 31.53125 -16.796875 Z M 31.53125 -16.796875 "/></g></g></g><g fill="#8b561f" fill-opacity="1"><g transform="translate(524.488587, 451.499997)"><g><path d="M 25.265625 3.796875 C 21.953125 3.796875 19.34375 2.921875 17.4375 1.171875 C 15.539062 -0.578125 14.59375 -2.863281 14.59375 -5.6875 C 14.59375 -9 16.003906 -13.769531 18.828125 -20 C 20.097656 -23.207031 21.046875 -25.757812 21.671875 -27.65625 C 22.304688 -29.5625 22.625 -31.34375 22.625 -33 C 22.625 -35.425781 22.0625 -37.34375 20.9375 -38.75 C 19.820312 -40.164062 18.582031 -41.335938 17.21875 -42.265625 C 15.863281 -43.191406 14.941406 -43.800781 14.453125 -44.09375 C 12.304688 -38.644531 10.015625 -33.316406 7.578125 -28.109375 C 5.148438 -22.898438 3.109375 -18.882812 1.453125 -16.0625 L 0.140625 -18.546875 C 4.816406 -27.597656 8.757812 -36.84375 11.96875 -46.28125 C 11 -47.25 10.515625 -48.414062 10.515625 -49.78125 C 10.515625 -51.53125 10.878906 -53.1875 11.609375 -54.75 C 12.335938 -56.3125 13.210938 -57.53125 14.234375 -58.40625 C 15.253906 -59.28125 16.054688 -59.71875 16.640625 -59.71875 C 18.003906 -59.71875 18.6875 -58.546875 18.6875 -56.203125 C 18.6875 -55.816406 18.441406 -54.941406 17.953125 -53.578125 C 17.472656 -52.210938 17.179688 -51.289062 17.078125 -50.8125 C 17.078125 -49.832031 17.488281 -48.925781 18.3125 -48.09375 C 19.144531 -47.269531 20.488281 -46.226562 22.34375 -44.96875 C 25.351562 -42.820312 27.707031 -40.703125 29.40625 -38.609375 C 31.113281 -36.523438 31.96875 -33.828125 31.96875 -30.515625 C 31.96875 -28.367188 31.628906 -26.25 30.953125 -24.15625 C 30.273438 -22.070312 29.253906 -19.320312 27.890625 -15.90625 C 25.742188 -11.238281 24.671875 -7.882812 24.671875 -5.84375 C 24.671875 -2.914062 26.128906 -1.453125 29.046875 -1.453125 C 31.972656 -1.453125 35.113281 -2.617188 38.46875 -4.953125 C 41.832031 -7.296875 44.921875 -10.191406 47.734375 -13.640625 C 50.554688 -17.097656 52.601562 -20.289062 53.875 -23.21875 L 55.765625 -21.75 C 52.753906 -15.039062 48.375 -9.101562 42.625 -3.9375 C 36.882812 1.21875 31.097656 3.796875 25.265625 3.796875 Z M 25.265625 3.796875 "/></g></g></g><g fill="#8b561f" fill-opacity="1"><g transform="translate(575.293852, 451.499997)"><g><path d="M 43.359375 5.546875 C 39.953125 5.546875 37.128906 4.082031 34.890625 1.15625 C 32.648438 -1.757812 31.019531 -5.257812 30 -9.34375 C 28.976562 -13.425781 28.46875 -17.222656 28.46875 -20.734375 C 30.320312 -20.734375 32.734375 -21.265625 35.703125 -22.328125 C 38.671875 -23.398438 41.320312 -24.984375 43.65625 -27.078125 C 45.988281 -29.171875 47.15625 -31.726562 47.15625 -34.75 C 47.15625 -36.695312 46.425781 -38.273438 44.96875 -39.484375 C 43.507812 -40.703125 41.804688 -41.3125 39.859375 -41.3125 C 33.628906 -41.3125 28.300781 -37.320312 23.875 -29.34375 C 19.445312 -21.363281 15.578125 -12.363281 12.265625 -2.34375 L 10.65625 1.890625 C 10.164062 2.773438 9.457031 3.4375 8.53125 3.875 C 7.613281 4.3125 6.664062 4.53125 5.6875 4.53125 C 3.457031 4.53125 2.046875 3.359375 1.453125 1.015625 C 0.867188 -1.316406 0.578125 -4.722656 0.578125 -9.203125 C 0.578125 -18.734375 3.472656 -31.039062 9.265625 -46.125 C 15.054688 -61.21875 21.578125 -74.675781 28.828125 -86.5 C 36.085938 -98.332031 41.421875 -104.25 44.828125 -104.25 C 46.085938 -104.25 47.15625 -103.320312 48.03125 -101.46875 C 48.90625 -99.625 49.34375 -97.382812 49.34375 -94.75 C 49.34375 -90.269531 48.050781 -85.160156 45.46875 -79.421875 C 42.894531 -73.679688 39.320312 -68.132812 34.75 -62.78125 C 30.175781 -57.425781 25.113281 -53.09375 19.5625 -49.78125 C 16.445312 -42.1875 14.0625 -34.640625 12.40625 -27.140625 C 10.75 -19.648438 9.921875 -13.28125 9.921875 -8.03125 C 14.210938 -18.832031 19.128906 -28.34375 24.671875 -36.5625 C 30.222656 -44.789062 36.207031 -48.90625 42.625 -48.90625 C 46.226562 -48.90625 49.296875 -47.640625 51.828125 -45.109375 C 54.359375 -42.578125 55.625 -39.515625 55.625 -35.921875 C 55.625 -32.117188 54.382812 -28.925781 51.90625 -26.34375 C 49.425781 -23.769531 46.550781 -21.875 43.28125 -20.65625 C 40.019531 -19.4375 37.222656 -18.828125 34.890625 -18.828125 C 35.378906 -15.234375 36.570312 -11.195312 38.46875 -6.71875 C 40.363281 -2.238281 42.96875 0 46.28125 0 C 53.582031 0 60.785156 -7.929688 67.890625 -23.796875 L 69.34375 -22.34375 C 67.988281 -17.570312 65.898438 -13.046875 63.078125 -8.765625 C 60.253906 -4.484375 57.085938 -1.03125 53.578125 1.59375 C 50.078125 4.226562 46.671875 5.546875 43.359375 5.546875 Z M 22.046875 -55.625 C 26.328125 -59.03125 30.171875 -63.019531 33.578125 -67.59375 C 36.984375 -72.164062 39.632812 -76.59375 41.53125 -80.875 C 43.4375 -85.164062 44.390625 -88.578125 44.390625 -91.109375 C 44.390625 -91.984375 44.242188 -92.421875 43.953125 -92.421875 C 42.484375 -92.421875 39.507812 -88.695312 35.03125 -81.25 C 30.5625 -73.800781 26.234375 -65.257812 22.046875 -55.625 Z M 22.046875 -55.625 "/></g></g></g><g fill="#8b561f" fill-opacity="1"><g transform="translate(640.406336, 451.499997)"><g><path d="M 15.328125 7.453125 C 9.003906 7.453125 4.378906 5.550781 1.453125 1.75 C -1.460938 -2.039062 -2.921875 -6.519531 -2.921875 -11.6875 C -2.921875 -15.570312 -2.238281 -18.316406 -0.875 -19.921875 C 0.488281 -21.535156 1.972656 -22.679688 3.578125 -23.359375 C 5.179688 -24.035156 6.128906 -24.519531 6.421875 -24.8125 C 12.648438 -31.632812 17.46875 -38.691406 20.875 -45.984375 L 20.875 -47.734375 C 20.875 -51.046875 21.429688 -53.53125 22.546875 -55.1875 C 23.671875 -56.84375 25.015625 -57.671875 26.578125 -57.671875 C 27.347656 -57.671875 27.925781 -57.5 28.3125 -57.15625 C 28.707031 -56.8125 28.90625 -56.347656 28.90625 -55.765625 C 28.90625 -55.378906 28.757812 -54.578125 28.46875 -53.359375 C 28.175781 -52.140625 28.03125 -50.800781 28.03125 -49.34375 C 28.03125 -47.394531 28.296875 -45.328125 28.828125 -43.140625 C 29.367188 -40.953125 30.222656 -38.109375 31.390625 -34.609375 C 32.753906 -30.421875 33.800781 -26.769531 34.53125 -23.65625 C 35.257812 -20.539062 35.625 -17.375 35.625 -14.15625 C 35.625 -11.625 35.332031 -9.242188 34.75 -7.015625 C 38.25 -7.597656 41.507812 -9.175781 44.53125 -11.75 C 47.550781 -14.332031 50.421875 -18.25 53.140625 -23.5 L 54.453125 -22.046875 C 52.703125 -16.984375 50.023438 -12.988281 46.421875 -10.0625 C 42.828125 -7.144531 38.691406 -5.347656 34.015625 -4.671875 C 32.554688 -0.679688 30.171875 2.332031 26.859375 4.375 C 23.554688 6.425781 19.710938 7.453125 15.328125 7.453125 Z M 25.546875 -7.15625 C 25.941406 -9.6875 26.140625 -11.972656 26.140625 -14.015625 C 26.140625 -16.929688 25.894531 -19.847656 25.40625 -22.765625 C 24.914062 -25.691406 24.1875 -29.050781 23.21875 -32.84375 C 22.34375 -36.738281 21.804688 -39.269531 21.609375 -40.4375 C 16.640625 -32.257812 11.921875 -25.9375 7.453125 -21.46875 C 9.003906 -18.0625 11.359375 -15.039062 14.515625 -12.40625 C 17.679688 -9.78125 21.359375 -8.03125 25.546875 -7.15625 Z M 15.625 2.34375 C 20.101562 2.34375 23.164062 -0.0390625 24.8125 -4.8125 C 20.925781 -5.59375 17.375 -7.125 14.15625 -9.40625 C 10.945312 -11.695312 8.515625 -14.207031 6.859375 -16.9375 C 4.722656 -16.84375 3.65625 -15.140625 3.65625 -11.828125 C 3.65625 -8.128906 4.75 -4.84375 6.9375 -1.96875 C 9.125 0.90625 12.019531 2.34375 15.625 2.34375 Z M 15.625 2.34375 "/></g></g></g></svg>